<svg width="16" height="16" viewBox="0 0 16 16" fill="none" xmlns="http://www.w3.org/2000/svg">
<path fill-rule="evenodd" clip-rule="evenodd" d="M14 5H10V2C10 1.46957 9.78929 0.960858 9.41422 0.585785C9.03914 0.210712 8.53043 0 8 0H7C6.60115 0.00160938 6.21189 0.12243 5.88223 0.346954C5.55257 0.571478 5.29757 0.889459 5.14999 1.26001L3.64999 5H2C1.46957 5 0.960858 5.21071 0.585785 5.58578C0.210712 5.96086 0 6.46957 0 7V14C0 14.5304 0.210712 15.0391 0.585785 15.4142C0.960858 15.7893 1.46957 16 2 16H4C4.35177 16.0033 4.6977 15.9099 5 15.73C5.30384 15.9063 5.64874 15.9994 6 16H10C10.2639 16.0002 10.5253 15.9482 10.769 15.8469C11.0127 15.7457 11.234 15.5972 11.42 15.41L13.98 12.85L15.42 11.41C15.7919 11.035 16.0004 10.5281 16 10V7C16 6.46957 15.7893 5.96086 15.4142 5.58578C15.0391 5.21071 14.5304 5 14 5ZM3 14H2V7H3V14ZM14 10L12.57 11.44L10 14H6L5 13V7L7 2H8V7H14V10Z" fill="white"/>
</svg>
