<svg width="17" height="16" viewBox="0 0 17 16" fill="none" xmlns="http://www.w3.org/2000/svg">
<path fill-rule="evenodd" clip-rule="evenodd" d="M15.6513 3.89001L13.6513 0.890015C13.469 0.616745 13.2222 0.392591 12.9327 0.237366C12.6431 0.0821404 12.3198 0.00060823 11.9913 0H3.99133C3.66451 0.00224397 3.34322 0.0845318 3.05558 0.239685C2.76794 0.394838 2.52271 0.618144 2.34133 0.890015L0.341332 3.89001C0.0781471 4.28066 -0.0387187 4.75164 0.0113299 5.22L1.01133 14.22C1.06571 14.7114 1.30019 15.1653 1.66953 15.494C2.03888 15.8227 2.5169 16.003 3.01133 16H12.9913C13.4858 16.003 13.9638 15.8227 14.3331 15.494C14.7025 15.1653 14.9369 14.7114 14.9913 14.22L15.1513 12.8L15.9913 5.22C16.0385 4.75044 15.918 4.27935 15.6513 3.89001ZM3.99133 2H11.9913L12.6513 3H3.36132L3.99133 2ZM13.1113 12.58L12.9913 14H3.04133L2.04133 5H13.9913L13.1113 12.58ZM5.11132 9.45001C5.19442 9.61493 5.32157 9.7536 5.47866 9.85068C5.63575 9.94776 5.81665 9.99944 6.00132 10H10.0013C10.186 9.99944 10.3669 9.94776 10.524 9.85068C10.6811 9.7536 10.8082 9.61493 10.8913 9.45001L11.8913 7.45001C11.9622 7.33218 12.0081 7.20098 12.026 7.06464C12.0439 6.92829 12.0335 6.78973 11.9954 6.65759C11.9573 6.52545 11.8924 6.40258 11.8047 6.29666C11.717 6.19074 11.6084 6.10407 11.4857 6.04202C11.363 5.97997 11.2288 5.94388 11.0915 5.93604C10.9542 5.92819 10.8168 5.94875 10.6878 5.99643C10.5588 6.0441 10.441 6.11789 10.3419 6.21313C10.2427 6.30838 10.1642 6.42304 10.1113 6.54999L9.39132 8H6.64132L5.92132 6.54999C5.79114 6.33364 5.58394 6.17454 5.34132 6.10464C5.09869 6.03475 4.83859 6.05923 4.61326 6.17316C4.38793 6.28709 4.21404 6.48204 4.1265 6.71887C4.03897 6.95571 4.04425 7.21692 4.14132 7.45001L5.11132 9.45001Z" fill="white"/>
</svg>
