<svg width="16" height="17" viewBox="0 0 16 17" fill="none" xmlns="http://www.w3.org/2000/svg">
<path fill-rule="evenodd" clip-rule="evenodd" d="M13.83 8.86868C14.5095 8.16628 14.9084 7.23937 14.9513 6.263C14.9942 5.28663 14.6781 4.32835 14.0628 3.56906C13.4475 2.80976 12.5755 2.30198 11.6115 2.14163C10.6474 1.98128 9.65796 2.17943 8.82999 2.69867C8.63341 2.12731 8.30997 1.60791 7.88391 1.17947C7.45785 0.751028 6.94028 0.424671 6.37003 0.224911C5.79978 0.025152 5.19168 -0.0428241 4.5914 0.0260894C3.99112 0.0950029 3.41423 0.299039 2.90408 0.62283C2.39394 0.946621 1.96379 1.38178 1.6459 1.89563C1.32802 2.40947 1.13068 2.98865 1.0687 3.58969C1.00671 4.19073 1.0817 4.798 1.28802 5.3659C1.49435 5.93381 1.82668 6.44759 2.26001 6.86868C1.57035 7.32047 1.0031 7.93579 0.608795 8.65985C0.214488 9.38391 0.00535253 10.1942 0 11.0187C0 11.7187 0.36 14.0187 5 14.0187C5.40079 14.0204 5.80139 14.0004 6.20001 13.9587C6.58001 14.8787 7.73 16.0187 11 16.0187C15.64 16.0187 16 13.7187 16 13.0187C16.0046 12.2023 15.8092 11.3973 15.4309 10.6739C15.0526 9.95051 14.503 9.33072 13.83 8.86868ZM5 2.01867C5.39556 2.01867 5.78225 2.13598 6.11115 2.35574C6.44004 2.5755 6.69637 2.88784 6.84775 3.25329C6.99912 3.61875 7.03875 4.02088 6.96158 4.40884C6.88441 4.7968 6.69392 5.15318 6.41422 5.43289C6.13451 5.71259 5.77813 5.90308 5.39017 5.98025C5.00221 6.05742 4.60007 6.0178 4.23462 5.86642C3.86917 5.71505 3.55683 5.45872 3.33707 5.12982C3.1173 4.80092 3 4.41424 3 4.01867C3 3.48824 3.21071 2.97953 3.58578 2.60446C3.96086 2.22939 4.46957 2.01867 5 2.01867ZM6.10999 11.9587C5.74161 12.002 5.37089 12.022 5 12.0187C2 12.0187 2 11.0187 2 11.0187C2.00047 10.3697 2.21137 9.73834 2.60107 9.21939C2.99078 8.70043 3.53829 8.32185 4.16141 8.14044C4.78452 7.95902 5.44967 7.98456 6.05704 8.21322C6.66441 8.44189 7.18124 8.86137 7.53 9.40869C6.83071 10.1071 6.34805 10.9925 6.14001 11.9587H6.10999ZM11 4.01867C11.3956 4.01867 11.7822 4.13598 12.1111 4.35574C12.44 4.5755 12.6964 4.88784 12.8477 5.25329C12.9991 5.61874 13.0387 6.02088 12.9616 6.40884C12.8844 6.7968 12.6939 7.15318 12.4142 7.43289C12.1345 7.71259 11.7781 7.90308 11.3902 7.98025C11.0022 8.05742 10.6001 8.0178 10.2346 7.86642C9.86917 7.71505 9.55683 7.45872 9.33707 7.12982C9.1173 6.80092 9 6.41424 9 6.01867C9 5.48824 9.21071 4.97953 9.58578 4.60446C9.96086 4.22939 10.4696 4.01867 11 4.01867ZM11 14.0187C10.0479 14.1282 9.08606 13.9246 8.26001 13.4387C8.1902 13.3902 8.13109 13.3279 8.08636 13.2557C8.04164 13.1834 8.01224 13.1028 8 13.0187C8.00055 12.4115 8.18534 11.8187 8.52994 11.3188C8.87454 10.8188 9.36273 10.4353 9.92999 10.2187C10.2709 10.0853 10.6339 10.0174 11 10.0187C11.7956 10.0187 12.5587 10.3348 13.1213 10.8974C13.6839 11.46 14 12.223 14 13.0187C14 13.0187 14 14.0187 11 14.0187Z" fill="white"/>
</svg>
