<svg width="16" height="16" viewBox="0 0 16 16" fill="none" xmlns="http://www.w3.org/2000/svg">
<path fill-rule="evenodd" clip-rule="evenodd" d="M14 2H11C11 1.46957 10.7893 0.960888 10.4142 0.585815C10.0391 0.210743 9.53043 0 9 0H5C4.64783 0.00365747 4.30287 0.100276 4 0.280029C3.69713 0.100276 3.35217 0.00365747 3 0H2C1.46957 0 0.960858 0.210743 0.585785 0.585815C0.210712 0.960888 0 1.46957 0 2V14C0 14.5304 0.210712 15.0391 0.585785 15.4142C0.960858 15.7893 1.46957 16 2 16H3C3.53043 16 4.03914 15.7893 4.41422 15.4142C4.78929 15.0391 5 14.5304 5 14V10H7C7 10.5304 7.21071 11.0391 7.58578 11.4142C7.96086 11.7893 8.46957 12 9 12H14C14.5304 12 15.0391 11.7893 15.4142 11.4142C15.7893 11.0391 16 10.5304 16 10V4C16 3.46957 15.7893 2.96089 15.4142 2.58582C15.0391 2.21074 14.5304 2 14 2ZM3 14H2V2H3V14ZM14 10H9V8H5V2H9V4H14V10Z" fill="white"/>
</svg>
