<svg width="16" height="16" viewBox="0 0 16 16" fill="none" xmlns="http://www.w3.org/2000/svg">
<path fill-rule="evenodd" clip-rule="evenodd" d="M15.95 7.39C15.9031 6.84479 15.8026 6.30552 15.65 5.78C15.1831 4.1596 14.2162 2.72816 12.8872 1.69012C11.5582 0.652092 9.93522 0.0605586 8.24999 0H7.71001C6.02432 0.0578265 4.40001 0.646958 3.0692 1.68323C1.7384 2.7195 0.769179 4.14989 0.300007 5.77C0.14743 6.29553 0.0469271 6.8348 -1.09071e-05 7.38C-1.09071e-05 7.58 -1.09071e-05 7.78001 -1.09071e-05 7.99001C-0.00119345 10.0658 0.804522 12.0607 2.24691 13.5535C3.68929 15.0463 5.65541 15.9199 7.73 15.99H8.27001C10.3446 15.9199 12.3107 15.0463 13.7531 13.5535C15.1955 12.0607 16.0012 10.0658 16 7.99001C15.95 7.79001 15.95 7.59 15.95 7.39ZM2.14 9.39C2.76267 9.58313 3.40217 9.71705 4.05001 9.78999C4.13104 10.8928 4.34938 11.9812 4.7 13.03C3.4154 12.1878 2.50274 10.885 2.15001 9.39H2.14ZM4.36 4.17C4.20911 4.85203 4.10553 5.54369 4.05001 6.24001C4.00001 6.74001 3.97999 7.24001 3.96999 7.74001C3.28429 7.71789 2.61737 7.51055 2.04 7.14C2.04 7.03 2.04 6.91 2.04 6.8C2.21994 5.90133 2.61067 5.05821 3.18001 4.34C3.58422 3.79916 4.08209 3.33517 4.65001 2.97C4.52876 3.36297 4.43519 3.76395 4.37001 4.17H4.36ZM7.95 14C7.08 14 6.32999 12.31 6.05999 10C6.63999 10 7.26 10 7.95 10C8.64 10 9.26002 10 9.84002 10C9.60002 12.31 8.85 14 7.95 14ZM7.95 8C7.25 8 6.58 8 5.95 7.94C5.9497 7.30839 5.98642 6.67731 6.05999 6.05C6.12975 5.37218 6.26371 4.70252 6.46001 4.05C6.82001 2.8 7.36 2.05 7.95 2.05C8.54 2.05 9.07999 2.83 9.43999 4.05C9.63629 4.70252 9.77025 5.37218 9.84002 6.05C9.91359 6.67731 9.9503 7.30839 9.95 7.94C9.35 8 8.68 8 7.95 8ZM11.22 13C11.5706 11.9512 11.789 10.8628 11.87 9.75999C12.5178 9.68705 13.1573 9.55313 13.78 9.36C13.4322 10.8518 12.5271 12.1541 11.25 13H11.22ZM11.95 7.71001C11.95 7.21001 11.95 6.71001 11.87 6.21001C11.8145 5.51369 11.7109 4.82203 11.56 4.14C11.4752 3.73246 11.3616 3.33146 11.22 2.94C11.7879 3.30517 12.2858 3.76916 12.69 4.31C13.2593 5.02821 13.6501 5.87134 13.83 6.77C13.83 6.88 13.83 7 13.83 7.11C13.2701 7.48267 12.6214 7.70008 11.95 7.74001V7.71001Z" fill="white"/>
</svg>
