<svg width="100" height="100" viewBox="0 0 100 100" fill="none" xmlns="http://www.w3.org/2000/svg">
<circle cx="50" cy="50" r="50" fill="white"/>
<path d="M95.6904 58.5183L89.5731 50.1485C89.1892 49.611 89.1636 48.8688 89.5475 48.3312L95.5369 39.8847C96.0744 39.1168 95.8184 38.0418 94.9994 37.6067L85.8617 32.7179C85.273 32.4108 84.9403 31.7453 85.0683 31.0798L86.7832 20.8672C86.9368 19.9457 86.2457 19.0755 85.2986 19.0499L74.958 18.6148C74.2925 18.5892 73.7038 18.1285 73.5247 17.4886L70.658 7.50629C70.402 6.61045 69.4038 6.12413 68.5335 6.50807L59.012 10.6034C58.3977 10.8593 57.681 10.7057 57.2203 10.2194L50.3095 2.51515C49.6696 1.82407 48.5946 1.82407 47.9547 2.54075L41.1463 10.3474C40.7111 10.8593 39.9945 11.0129 39.3802 10.7569L29.8074 6.81521C28.9372 6.45687 27.9645 6.94319 27.7086 7.83904L24.9698 17.8213C24.7907 18.4612 24.2276 18.9219 23.5621 18.9731L13.2215 19.5618C12.2744 19.613 11.609 20.4833 11.7625 21.4047L13.631 31.5917C13.759 32.2572 13.4262 32.9227 12.8631 33.2299L3.8023 38.2466C2.98324 38.7073 2.75288 39.7823 3.29039 40.5246L9.40773 48.8943C9.79167 49.4319 9.81726 50.1741 9.43333 50.7116L3.44396 59.1582C2.90645 59.926 3.16241 61.0011 3.98147 61.4362L13.1191 66.3249C13.7078 66.6321 14.0405 67.2976 13.9126 67.9631L12.1976 78.1757C12.0441 79.0971 12.7352 79.9674 13.6822 79.993L24.0228 80.4281C24.6883 80.4537 25.277 80.9144 25.4562 81.5543L28.3485 91.511C28.6044 92.4068 29.6026 92.8932 30.4729 92.5092L39.9945 88.4139C40.6087 88.158 41.3254 88.3115 41.7861 88.7979L48.697 96.5021C49.3368 97.1932 50.4119 97.1932 51.0517 96.4765L57.8602 88.6699C58.2953 88.158 59.012 88.0044 59.6263 88.2604L69.199 92.2021C70.0693 92.5604 71.0419 92.0741 71.2979 91.1782L74.0366 81.196C74.2158 80.5561 74.7789 80.0954 75.4443 80.0442L85.785 79.4555C86.732 79.4043 87.3975 78.534 87.2439 77.6126L85.3754 67.4255C85.2474 66.7601 85.5802 66.0946 86.1433 65.7874L95.2041 60.7707C96.0232 60.3612 96.2535 59.2862 95.6904 58.5183ZM49.516 77.6382C34.0307 77.6382 21.4121 65.0196 21.4121 49.5342C21.4121 34.0489 34.0307 21.4303 49.516 21.4303C65.0013 21.4303 77.62 34.0489 77.62 49.5342C77.62 65.0452 65.0013 77.6382 49.516 77.6382Z" fill="black"/>
<path d="M95.6904 58.5183L89.5731 50.1485C89.1892 49.611 89.1636 48.8688 89.5475 48.3312L95.5369 39.8847C96.0744 39.1168 95.8184 38.0418 94.9994 37.6067L85.8617 32.7179C85.273 32.4108 84.9403 31.7453 85.0683 31.0798L86.7832 20.8672C86.9368 19.9457 86.2457 19.0755 85.2986 19.0499L74.958 18.6148C74.2925 18.5892 73.7038 18.1285 73.5247 17.4886L70.658 7.50629C70.402 6.61045 69.4038 6.12413 68.5335 6.50807L59.012 10.6034C58.3977 10.8593 57.681 10.7057 57.2203 10.2194L50.3095 2.51515C49.6696 1.82407 48.5946 1.82407 47.9547 2.54075L41.1463 10.3474C40.7111 10.8593 39.9945 11.0129 39.3802 10.7569L29.8074 6.81521C28.9372 6.45687 27.9645 6.94319 27.7086 7.83904L24.9698 17.8213C24.7907 18.4612 24.2276 18.9219 23.5621 18.9731L13.2215 19.5618C12.2744 19.613 11.609 20.4833 11.7625 21.4047L13.631 31.5917C13.759 32.2572 13.4262 32.9227 12.8631 33.2299L3.8023 38.2466C2.98324 38.7073 2.75288 39.7823 3.29039 40.5246L9.40773 48.8943C9.79167 49.4319 9.81726 50.1741 9.43333 50.7116L3.44396 59.1582C2.90645 59.926 3.16241 61.0011 3.98147 61.4362L13.1191 66.3249C13.7078 66.6321 14.0405 67.2976 13.9126 67.9631L12.1976 78.1757C12.0441 79.0971 12.7352 79.9674 13.6822 79.993L24.0228 80.4281C24.6883 80.4537 25.277 80.9144 25.4562 81.5543L28.3485 91.511C28.6044 92.4068 29.6026 92.8932 30.4729 92.5092L39.9945 88.4139C40.6087 88.158 41.3254 88.3115 41.7861 88.7979L48.697 96.5021C49.3368 97.1932 50.4119 97.1932 51.0517 96.4765L57.8602 88.6699C58.2953 88.158 59.012 88.0044 59.6263 88.2604L69.199 92.2021C70.0693 92.5604 71.0419 92.0741 71.2979 91.1782L74.0366 81.196C74.2158 80.5561 74.7789 80.0954 75.4443 80.0442L85.785 79.4555C86.732 79.4043 87.3975 78.534 87.2439 77.6126L85.3754 67.4255C85.2474 66.7601 85.5802 66.0946 86.1433 65.7874L95.2041 60.7707C96.0232 60.3612 96.2535 59.2862 95.6904 58.5183ZM49.516 77.6382C34.0307 77.6382 21.4121 65.0196 21.4121 49.5342C21.4121 34.0489 34.0307 21.4303 49.516 21.4303C65.0013 21.4303 77.62 34.0489 77.62 49.5342C77.62 65.0452 65.0013 77.6382 49.516 77.6382Z" fill="#29D19A"/>
<path d="M95.6904 58.5183L89.5731 50.1485C89.1892 49.611 89.1636 48.8688 89.5475 48.3312L95.5369 39.8847C96.0744 39.1168 95.8184 38.0418 94.9994 37.6067L85.8617 32.7179C85.273 32.4108 84.9403 31.7453 85.0683 31.0798L86.7832 20.8672C86.9368 19.9457 86.2457 19.0755 85.2986 19.0499L74.958 18.6148C74.2925 18.5892 73.7038 18.1285 73.5247 17.4886L70.658 7.50629C70.402 6.61045 69.4038 6.12413 68.5335 6.50807L59.012 10.6034C58.3977 10.8593 57.681 10.7057 57.2203 10.2194L50.3095 2.51515C49.6696 1.82407 48.5946 1.82407 47.9547 2.54075L41.1463 10.3474C40.7111 10.8593 39.9945 11.0129 39.3802 10.7569L29.8074 6.81521C28.9372 6.45687 27.9645 6.94319 27.7086 7.83904L24.9698 17.8213C24.7907 18.4612 24.2276 18.9219 23.5621 18.9731L13.2215 19.5618C12.2744 19.613 11.609 20.4833 11.7625 21.4047L13.631 31.5917C13.759 32.2572 13.4262 32.9227 12.8631 33.2299L3.8023 38.2466C2.98324 38.7073 2.75288 39.7823 3.29039 40.5246L9.40773 48.8943C9.79167 49.4319 9.81726 50.1741 9.43333 50.7116L3.44396 59.1582C2.90645 59.926 3.16241 61.0011 3.98147 61.4362L13.1191 66.3249C13.7078 66.6321 14.0405 67.2976 13.9126 67.9631L12.1976 78.1757C12.0441 79.0971 12.7352 79.9674 13.6822 79.993L24.0228 80.4281C24.6883 80.4537 25.277 80.9144 25.4562 81.5543L28.3485 91.511C28.6044 92.4068 29.6026 92.8932 30.4729 92.5092L39.9945 88.4139C40.6087 88.158 41.3254 88.3115 41.7861 88.7979L48.697 96.5021C49.3368 97.1932 50.4119 97.1932 51.0517 96.4765L57.8602 88.6699C58.2953 88.158 59.012 88.0044 59.6263 88.2604L69.199 92.2021C70.0693 92.5604 71.0419 92.0741 71.2979 91.1782L74.0366 81.196C74.2158 80.5561 74.7789 80.0954 75.4443 80.0442L85.785 79.4555C86.732 79.4043 87.3975 78.534 87.2439 77.6126L85.3754 67.4255C85.2474 66.7601 85.5802 66.0946 86.1433 65.7874L95.2041 60.7707C96.0232 60.3612 96.2535 59.2862 95.6904 58.5183ZM49.516 77.6382C34.0307 77.6382 21.4121 65.0196 21.4121 49.5342C21.4121 34.0489 34.0307 21.4303 49.516 21.4303C65.0013 21.4303 77.62 34.0489 77.62 49.5342C77.62 65.0452 65.0013 77.6382 49.516 77.6382Z" fill="url(#paint0_linear)"/>
<path d="M66.1785 42.5467L55.582 41.7788L51.5891 31.9501C50.8468 30.1072 48.2105 30.1072 47.4682 31.9501L43.4753 41.7788L32.8787 42.5467C30.8823 42.7002 30.0888 45.183 31.5989 46.4628L39.7127 53.3224L37.1788 63.6374C36.6924 65.5827 38.8169 67.1184 40.5062 66.069L49.5158 60.4636L58.5255 66.069C60.2148 67.1184 62.3392 65.5827 61.8529 63.6374L59.3189 53.3224L67.4327 46.4628C68.9685 45.183 68.175 42.7002 66.1785 42.5467Z" fill="black"/>
<path d="M66.1785 42.5467L55.582 41.7788L51.5891 31.9501C50.8468 30.1072 48.2105 30.1072 47.4682 31.9501L43.4753 41.7788L32.8787 42.5467C30.8823 42.7002 30.0888 45.183 31.5989 46.4628L39.7127 53.3224L37.1788 63.6374C36.6924 65.5827 38.8169 67.1184 40.5062 66.069L49.5158 60.4636L58.5255 66.069C60.2148 67.1184 62.3392 65.5827 61.8529 63.6374L59.3189 53.3224L67.4327 46.4628C68.9685 45.183 68.175 42.7002 66.1785 42.5467Z" fill="#29D19A"/>
<path d="M66.1785 42.5467L55.582 41.7788L51.5891 31.9501C50.8468 30.1072 48.2105 30.1072 47.4682 31.9501L43.4753 41.7788L32.8787 42.5467C30.8823 42.7002 30.0888 45.183 31.5989 46.4628L39.7127 53.3224L37.1788 63.6374C36.6924 65.5827 38.8169 67.1184 40.5062 66.069L49.5158 60.4636L58.5255 66.069C60.2148 67.1184 62.3392 65.5827 61.8529 63.6374L59.3189 53.3224L67.4327 46.4628C68.9685 45.183 68.175 42.7002 66.1785 42.5467Z" fill="url(#paint1_linear)"/>
<defs>
<linearGradient id="paint0_linear" x1="80.19" y1="84.665" x2="17.3304" y2="15.2164" gradientUnits="userSpaceOnUse">
<stop stop-color="white" stop-opacity="0.3"/>
<stop offset="1" stop-color="white" stop-opacity="0"/>
</linearGradient>
<linearGradient id="paint1_linear" x1="61.8759" y1="61.7501" x2="38.3651" y2="34.0382" gradientUnits="userSpaceOnUse">
<stop stop-color="white" stop-opacity="0.3"/>
<stop offset="1" stop-color="white" stop-opacity="0"/>
</linearGradient>
</defs>
</svg>
