<svg width="106" height="103" viewBox="0 0 106 103" fill="none" xmlns="http://www.w3.org/2000/svg">
<circle cx="50" cy="53" r="50" fill="white"/>
<path d="M50.9529 100C75.7797 100 95.9058 79.874 95.9058 55.0472C95.9058 47.4083 94.0063 40.2205 90.6485 33.9246C90.2812 33.977 89.9035 33.998 89.5362 33.998C89.3263 33.998 89.106 33.9875 88.8857 33.977L83.1669 33.5363L79.0535 37.6496C82.191 42.7073 84.0064 48.6675 84.0064 55.0472C84.0064 73.2949 69.211 88.0902 50.9633 88.0902C32.7157 88.0902 17.9098 73.2949 17.9098 55.0472C17.9098 36.7997 32.7051 22.0043 50.9528 22.0043C57.3432 22.0043 63.3033 23.8196 68.3504 26.9571L72.0754 23.232L71.5719 16.6738C71.5299 16.1491 71.5403 15.6244 71.5928 15.1103C65.4123 11.9099 58.3924 10.0945 50.9423 10.0945C26.1259 10.0945 6 30.2205 6 55.0472C6 79.874 26.126 100 50.9529 100Z" fill="#29D19A"/>
<path d="M50.9529 100C75.7797 100 95.9058 79.874 95.9058 55.0472C95.9058 47.4083 94.0063 40.2205 90.6485 33.9246C90.2812 33.977 89.9035 33.998 89.5362 33.998C89.3263 33.998 89.106 33.9875 88.8857 33.977L83.1669 33.5363L79.0535 37.6496C82.191 42.7073 84.0064 48.6675 84.0064 55.0472C84.0064 73.2949 69.211 88.0902 50.9633 88.0902C32.7157 88.0902 17.9098 73.2949 17.9098 55.0472C17.9098 36.7997 32.7051 22.0043 50.9528 22.0043C57.3432 22.0043 63.3033 23.8196 68.3504 26.9571L72.0754 23.232L71.5719 16.6738C71.5299 16.1491 71.5403 15.6244 71.5928 15.1103C65.4123 11.9099 58.3924 10.0945 50.9423 10.0945C26.1259 10.0945 6 30.2205 6 55.0472C6 79.874 26.126 100 50.9529 100Z" fill="url(#paint0_linear)"/>
<path d="M50.9529 43.4313C51.2467 43.4313 51.5405 43.4419 51.8343 43.4628L60.1344 35.1626L60.3127 34.9843C57.469 33.6516 54.3002 32.9066 50.9528 32.9066C38.7282 32.9066 28.8226 42.8122 28.8226 55.0367C28.8226 67.2613 38.7282 77.1773 50.9528 77.1773C63.1773 77.1773 73.083 67.2718 73.083 55.0472C73.083 51.6999 72.3377 48.5311 71.0052 45.6873L70.8269 45.8657L62.5266 54.1657C62.5477 54.4596 62.5582 54.7535 62.5582 55.0471C62.5582 61.4584 57.3641 66.6632 50.9423 66.6632C44.5204 66.6632 39.3367 61.4583 39.3367 55.0471C39.3369 48.6359 44.5415 43.4313 50.9529 43.4313Z" fill="#29D19A"/>
<path d="M50.9529 43.4313C51.2467 43.4313 51.5405 43.4419 51.8343 43.4628L60.1344 35.1626L60.3127 34.9843C57.469 33.6516 54.3002 32.9066 50.9528 32.9066C38.7282 32.9066 28.8226 42.8122 28.8226 55.0367C28.8226 67.2613 38.7282 77.1773 50.9528 77.1773C63.1773 77.1773 73.083 67.2718 73.083 55.0472C73.083 51.6999 72.3377 48.5311 71.0052 45.6873L70.8269 45.8657L62.5266 54.1657C62.5477 54.4596 62.5582 54.7535 62.5582 55.0471C62.5582 61.4584 57.3641 66.6632 50.9423 66.6632C44.5204 66.6632 39.3367 61.4583 39.3367 55.0471C39.3369 48.6359 44.5415 43.4313 50.9529 43.4313Z" fill="url(#paint1_linear)"/>
<path d="M97.2804 14.9633L99.9457 12.298C101.163 11.0808 101.163 9.11857 99.9457 7.90136L98.0986 6.04407C97.4901 5.43547 96.6928 5.13116 95.9058 5.13116C95.1188 5.13116 94.3107 5.43547 93.7127 6.04407L90.6592 9.09759L90.0296 0.965372C89.9876 0.367261 89.4942 0 88.9803 0C88.718 0 88.4556 0.0944386 88.2458 0.304302L76.2311 12.319C75.1502 13.3998 74.5939 14.9003 74.7096 16.4323L74.7409 16.9045L75.3181 24.4281L70.9739 28.7723L63.1565 36.5897L62.9782 36.7681L55.4126 44.3338L52.0548 47.6916C51.6141 48.1322 51.3412 48.7199 51.2993 49.3389L51.0894 51.9728C50.9635 53.5048 52.1807 54.806 53.7022 54.806C53.7441 54.806 53.7862 54.806 53.8386 54.806L56.6193 54.6695C57.2698 54.6379 57.889 54.3652 58.3402 53.9034L61.6665 50.5771L69.2321 43.0115L69.4106 42.8332L77.228 35.0157L81.95 30.2938L88.8123 30.8185L89.1166 30.8395C89.2531 30.8499 89.3894 30.8499 89.5154 30.8499C90.9004 30.8499 92.2332 30.3043 93.23 29.3179L105.234 17.3137C105.864 16.6842 105.465 15.5929 104.573 15.5299L97.2804 14.9633Z" fill="#29D19A"/>
<path d="M97.2804 14.9633L99.9457 12.298C101.163 11.0808 101.163 9.11857 99.9457 7.90136L98.0986 6.04407C97.4901 5.43547 96.6928 5.13116 95.9058 5.13116C95.1188 5.13116 94.3107 5.43547 93.7127 6.04407L90.6592 9.09759L90.0296 0.965372C89.9876 0.367261 89.4942 0 88.9803 0C88.718 0 88.4556 0.0944386 88.2458 0.304302L76.2311 12.319C75.1502 13.3998 74.5939 14.9003 74.7096 16.4323L74.7409 16.9045L75.3181 24.4281L70.9739 28.7723L63.1565 36.5897L62.9782 36.7681L55.4126 44.3338L52.0548 47.6916C51.6141 48.1322 51.3412 48.7199 51.2993 49.3389L51.0894 51.9728C50.9635 53.5048 52.1807 54.806 53.7022 54.806C53.7441 54.806 53.7862 54.806 53.8386 54.806L56.6193 54.6695C57.2698 54.6379 57.889 54.3652 58.3402 53.9034L61.6665 50.5771L69.2321 43.0115L69.4106 42.8332L77.228 35.0157L81.95 30.2938L88.8123 30.8185L89.1166 30.8395C89.2531 30.8499 89.3894 30.8499 89.5154 30.8499C90.9004 30.8499 92.2332 30.3043 93.23 29.3179L105.234 17.3137C105.864 16.6842 105.465 15.5929 104.573 15.5299L97.2804 14.9633Z" fill="url(#paint2_linear)"/>
<defs>
<linearGradient id="paint0_linear" x1="80.6218" y1="88.3123" x2="21.2842" y2="21.3325" gradientUnits="userSpaceOnUse">
<stop stop-color="white" stop-opacity="0.3"/>
<stop offset="1" stop-color="white" stop-opacity="0"/>
</linearGradient>
<linearGradient id="paint1_linear" x1="65.5587" y1="71.4221" x2="36.3392" y2="38.4473" gradientUnits="userSpaceOnUse">
<stop stop-color="white" stop-opacity="0.3"/>
<stop offset="1" stop-color="white" stop-opacity="0"/>
</linearGradient>
<linearGradient id="paint2_linear" x1="96.2825" y1="47.6812" x2="60.0837" y2="7.07809" gradientUnits="userSpaceOnUse">
<stop stop-color="white" stop-opacity="0.3"/>
<stop offset="1" stop-color="white" stop-opacity="0"/>
</linearGradient>
</defs>
</svg>
