<svg width="100" height="100" viewBox="0 0 100 100" fill="none" xmlns="http://www.w3.org/2000/svg">
<circle cx="50" cy="50" r="50" fill="white"/>
<path d="M86.1428 18.5782L51.2494 8.10998C50.7608 7.96334 50.2401 7.96334 49.7513 8.10998L14.8572 18.5782C13.7549 18.9088 13 19.9235 13 21.0744V59.4577C13 64.4502 15.0212 69.5607 19.0071 74.6475C22.0513 78.5325 26.2631 82.4336 31.525 86.2426C40.3647 92.6414 49.0692 96.5666 49.4355 96.7305C49.7741 96.8821 50.1372 96.9581 50.5003 96.9581C50.8635 96.9581 51.2266 96.8823 51.5652 96.7305C51.9313 96.5666 60.6357 92.6414 69.4753 86.2426C74.7373 82.4336 78.9489 78.5325 81.9932 74.6475C85.9792 69.5609 88 64.4503 88 59.4577V21.0744C88 19.9235 87.2454 18.9088 86.1428 18.5782Z" fill="black"/>
<path d="M86.1428 18.5782L51.2494 8.10998C50.7608 7.96334 50.2401 7.96334 49.7513 8.10998L14.8572 18.5782C13.7549 18.9088 13 19.9235 13 21.0744V59.4577C13 64.4502 15.0212 69.5607 19.0071 74.6475C22.0513 78.5325 26.2631 82.4336 31.525 86.2426C40.3647 92.6414 49.0692 96.5666 49.4355 96.7305C49.7741 96.8821 50.1372 96.9581 50.5003 96.9581C50.8635 96.9581 51.2266 96.8823 51.5652 96.7305C51.9313 96.5666 60.6357 92.6414 69.4753 86.2426C74.7373 82.4336 78.9489 78.5325 81.9932 74.6475C85.9792 69.5609 88 64.4503 88 59.4577V21.0744C88 19.9235 87.2454 18.9088 86.1428 18.5782Z" fill="#29D19A"/>
<path d="M86.1428 18.5782L51.2494 8.10998C50.7608 7.96334 50.2401 7.96334 49.7513 8.10998L14.8572 18.5782C13.7549 18.9088 13 19.9235 13 21.0744V59.4577C13 64.4502 15.0212 69.5607 19.0071 74.6475C22.0513 78.5325 26.2631 82.4336 31.525 86.2426C40.3647 92.6414 49.0692 96.5666 49.4355 96.7305C49.7741 96.8821 50.1372 96.9581 50.5003 96.9581C50.8635 96.9581 51.2266 96.8823 51.5652 96.7305C51.9313 96.5666 60.6357 92.6414 69.4753 86.2426C74.7373 82.4336 78.9489 78.5325 81.9932 74.6475C85.9792 69.5609 88 64.4503 88 59.4577V21.0744C88 19.9235 87.2454 18.9088 86.1428 18.5782Z" fill="url(#paint0_linear)"/>
<defs>
<linearGradient id="paint0_linear" x1="75.25" y1="85.3935" x2="16.1788" y2="29.177" gradientUnits="userSpaceOnUse">
<stop stop-color="white" stop-opacity="0.3"/>
<stop offset="1" stop-color="white" stop-opacity="0"/>
</linearGradient>
</defs>
</svg>
